<svg viewBox="0 0 16 17" fill="none" xmlns="http://www.w3.org/2000/svg">
<path d="M8.01562 0.140625C9.16406 0.140625 9.97656 0.945312 10.2734 1.96875C12.3516 2.71875 13.1406 4.78125 13.2031 7.78125C13.2578 8.67969 13.3984 9.78906 13.9141 10.3281C14.5938 11.0234 15.3828 11.7266 15.3828 12.5078C15.3828 12.7344 15.3203 12.9297 15.1875 13.0781L4.67969 2.55469C4.98438 2.30469 5.34375 2.10938 5.75781 1.96875C6.05469 0.945312 6.85938 0.140625 8.01562 0.140625ZM0.8125 1.72656C0.585938 1.5 0.585938 1.10156 0.8125 0.875C1.05469 0.640625 1.4375 0.640625 1.67188 0.875L15.7031 14.8906C15.9375 15.1328 15.9297 15.5078 15.7031 15.7422C15.4688 15.9844 15.0859 15.9844 14.8516 15.7422L0.8125 1.72656ZM1.82031 13.4531C1.08594 13.4531 0.640625 13.0781 0.640625 12.5078C0.640625 11.7266 1.4375 11.0234 2.11719 10.3281C2.63281 9.78906 2.76562 8.67969 2.82812 7.78125C2.84375 6.85938 2.92969 6.03906 3.10156 5.29688L11.25 13.4531H1.82031ZM8.01562 16.5859C6.6875 16.5859 5.71875 15.6172 5.61719 14.5234H10.4141C10.3047 15.6172 9.33594 16.5859 8.01562 16.5859Z" fill="white"/>
</svg>
